<?xml version="1.0" encoding="UTF-8" standalone="no"?>
<!DOCTYPE svg PUBLIC "-//W3C//DTD SVG 1.1//EN" "http://www.w3.org/Graphics/SVG/1.1/DTD/svg11.dtd">
<svg width="100%" height="100%" viewBox="0 0 1077 196" version="1.1" xmlns="http://www.w3.org/2000/svg" xmlns:xlink="http://www.w3.org/1999/xlink" xml:space="preserve" xmlns:serif="http://www.serif.com/" style="fill-rule:evenodd;clip-rule:evenodd;stroke-linejoin:round;stroke-miterlimit:2;">
    <g transform="matrix(1,0,0,1,-708.731396,-1297.604799)">
        <g transform="matrix(1,0,0,1,160.515442,344.332214)">
            <path d="M687.181,991.749L686.693,991.651L640.696,1105.616L627.903,1105.616L581.907,991.749L581.419,991.847L583.372,1049.366L583.372,1090.577L599.29,1093.312L599.29,1105.616L548.216,1105.616L548.216,1093.312L564.134,1090.577L564.134,978.566L548.216,975.831L548.216,963.429L588.743,963.429L634.056,1078.956L634.642,1078.956L679.857,963.429L720.482,963.429L720.482,975.831L704.564,978.566L704.564,1090.577L720.482,1093.312L720.482,1105.616L669.407,1105.616L669.407,1093.312L685.325,1090.577L685.325,1049.366L687.181,991.749Z" style="fill:white;fill-rule:nonzero;"/>
            <path d="M796.954,1105.616C796.368,1102.752 795.913,1100.18 795.587,1097.901C795.262,1095.623 795.034,1093.344 794.903,1091.066C791.193,1095.818 786.554,1099.773 780.987,1102.931C775.421,1106.088 769.48,1107.667 763.165,1107.667C752.163,1107.667 743.797,1104.982 738.068,1099.61C732.338,1094.239 729.474,1086.671 729.474,1076.905C729.474,1066.879 733.527,1059.148 741.632,1053.712C749.737,1048.276 760.854,1045.558 774.982,1045.558L794.806,1045.558L794.806,1033.253C794.806,1027.068 792.853,1022.169 788.946,1018.556C785.04,1014.943 779.604,1013.136 772.638,1013.136C767.82,1013.136 763.572,1013.754 759.894,1014.991C756.215,1016.228 753.237,1017.921 750.958,1020.069L748.907,1031.202L734.064,1031.202L734.064,1010.694C738.881,1006.853 744.708,1003.777 751.544,1001.466C758.38,999.155 765.802,997.999 773.81,997.999C785.789,997.999 795.489,1001.059 802.911,1007.179C810.333,1013.299 814.044,1022.055 814.044,1033.448L814.044,1084.327C814.044,1085.694 814.06,1087.029 814.093,1088.331C814.125,1089.633 814.207,1090.935 814.337,1092.237L822.15,1093.312L822.15,1105.616L796.954,1105.616ZM765.997,1091.554C772.377,1091.554 778.204,1090.024 783.478,1086.964C788.751,1083.904 792.527,1080.226 794.806,1075.929L794.806,1058.546L774.298,1058.546C766.42,1058.546 760.187,1060.369 755.597,1064.015C751.007,1067.661 748.712,1072.088 748.712,1077.296C748.712,1081.918 750.144,1085.45 753.009,1087.892C755.874,1090.333 760.203,1091.554 765.997,1091.554Z" style="fill:white;fill-rule:nonzero;"/>
            <path d="M830.263,1054.737C830.263,1037.745 833.974,1024.041 841.396,1013.624C848.818,1003.207 859.071,997.999 872.157,997.999C878.798,997.999 884.625,999.301 889.638,1001.905C894.651,1004.51 898.85,1008.286 902.235,1013.234L903.993,999.952L920.204,999.952L920.204,1104.249C920.204,1117.921 916.396,1128.679 908.778,1136.525C901.161,1144.37 890.321,1148.292 876.259,1148.292C871.181,1148.292 865.679,1147.592 859.755,1146.193C853.831,1144.793 848.622,1142.888 844.13,1140.48L849.11,1125.538C852.691,1127.426 856.923,1128.989 861.806,1130.226C866.689,1131.463 871.441,1132.081 876.064,1132.081C884.657,1132.081 890.956,1129.672 894.96,1124.855C898.964,1120.037 900.966,1113.168 900.966,1104.249L900.966,1094.191C897.515,1098.618 893.381,1101.971 888.564,1104.249C883.746,1106.528 878.212,1107.667 871.962,1107.667C859.006,1107.667 848.818,1102.98 841.396,1093.605C833.974,1084.23 830.263,1071.957 830.263,1056.788L830.263,1054.737ZM849.501,1056.788C849.501,1067.4 851.747,1075.929 856.239,1082.374C860.732,1088.819 867.568,1092.042 876.747,1092.042C882.541,1092.042 887.392,1090.724 891.298,1088.087C895.204,1085.45 898.427,1081.723 900.966,1076.905L900.966,1028.273C898.492,1023.78 895.269,1020.216 891.298,1017.579C887.327,1014.943 882.541,1013.624 876.943,1013.624C867.763,1013.624 860.894,1017.465 856.337,1025.148C851.78,1032.83 849.501,1042.693 849.501,1054.737L849.501,1056.788Z" style="fill:white;fill-rule:nonzero;"/>
            <path d="M929.88,1088.526L941.892,1086.183L979.489,1033.937L942.868,983.058L930.954,980.616L930.954,963.429L985.544,963.429L985.544,980.616L973.923,981.886L995.896,1016.749L1017.966,981.886L1006.54,980.616L1006.54,963.429L1061.325,963.429L1061.325,980.616L1049.411,983.058L1012.79,1033.937L1051.169,1086.085L1063.767,1088.526L1063.767,1105.616L1007.81,1105.616L1007.81,1088.526L1019.138,1087.355L996.286,1051.417L973.337,1087.355L984.763,1088.526L984.763,1105.616L929.88,1105.616L929.88,1088.526Z" style="fill:white;fill-rule:nonzero;"/>
            <path d="M1168.95,1005.421L1154.4,1005.421L1150.786,985.109C1147.857,982.635 1143.95,980.584 1139.068,978.956C1134.185,977.329 1128.521,976.515 1122.075,976.515C1111.854,976.515 1104.009,978.679 1098.54,983.009C1093.071,987.338 1090.337,992.986 1090.337,999.952C1090.337,1006.137 1093.12,1011.297 1098.687,1015.431C1104.253,1019.565 1113.254,1023.194 1125.689,1026.319C1140.663,1030.03 1152.04,1035.499 1159.819,1042.726C1167.599,1049.952 1171.489,1058.904 1171.489,1069.581C1171.489,1081.04 1166.818,1090.252 1157.476,1097.218C1148.133,1104.184 1135.91,1107.667 1120.806,1107.667C1109.868,1107.667 1100.152,1105.877 1091.655,1102.296C1083.159,1098.715 1076.242,1094.028 1070.903,1088.234L1070.903,1061.769L1085.357,1061.769L1089.068,1082.179C1092.778,1085.239 1097.206,1087.745 1102.349,1089.698C1107.492,1091.651 1113.644,1092.628 1120.806,1092.628C1130.506,1092.628 1138.172,1090.577 1143.804,1086.476C1149.435,1082.374 1152.251,1076.808 1152.251,1069.776C1152.251,1063.266 1149.81,1057.814 1144.927,1053.419C1140.044,1049.025 1131.418,1045.33 1119.048,1042.335C1104.009,1038.754 1092.258,1033.481 1083.794,1026.515C1075.331,1019.549 1071.099,1010.792 1071.099,1000.245C1071.099,989.112 1075.819,979.851 1085.259,972.462C1094.699,965.073 1106.971,961.378 1122.075,961.378C1132.036,961.378 1141.102,963.087 1149.273,966.505C1157.443,969.923 1164.002,974.073 1168.95,978.956L1168.95,1005.421Z" style="fill:white;fill-rule:nonzero;"/>
            <path d="M1215.15,974.464L1215.15,999.952L1235.169,999.952L1235.169,1014.21L1215.15,1014.21L1215.15,1078.37C1215.15,1083.318 1216.175,1086.801 1218.226,1088.819C1220.277,1090.838 1222.995,1091.847 1226.38,1091.847C1228.073,1091.847 1229.977,1091.7 1232.093,1091.407C1234.209,1091.114 1235.983,1090.805 1237.415,1090.48L1240.052,1103.663C1238.229,1104.835 1235.56,1105.795 1232.044,1106.544C1228.528,1107.293 1225.013,1107.667 1221.497,1107.667C1213.685,1107.667 1207.467,1105.307 1202.845,1100.587C1198.222,1095.867 1195.911,1088.461 1195.911,1078.37L1195.911,1014.21L1179.212,1014.21L1179.212,999.952L1195.911,999.952L1195.911,974.464L1215.15,974.464Z" style="fill:white;fill-rule:nonzero;"/>
            <path d="M1322.384,1089.991C1319.064,1095.655 1314.783,1100.017 1309.542,1103.077C1304.301,1106.137 1298.263,1107.667 1291.427,1107.667C1279.969,1107.667 1271.017,1103.989 1264.571,1096.632C1258.126,1089.275 1254.903,1077.817 1254.903,1062.257L1254.903,1015.089L1242.794,1012.355L1242.794,999.952L1274.142,999.952L1274.142,1062.452C1274.142,1073.715 1275.802,1081.463 1279.122,1085.694C1282.443,1089.926 1287.618,1092.042 1294.65,1092.042C1301.485,1092.042 1307.133,1090.659 1311.593,1087.892C1316.053,1085.125 1319.422,1081.202 1321.7,1076.124L1321.7,1015.089L1307.54,1012.355L1307.54,999.952L1340.939,999.952L1340.939,1090.577L1353.048,1093.312L1353.048,1105.616L1323.653,1105.616L1322.384,1089.991Z" style="fill:white;fill-rule:nonzero;"/>
            <path d="M1431.474,1093.019C1428.023,1097.836 1423.808,1101.482 1418.827,1103.956C1413.847,1106.43 1408.069,1107.667 1401.493,1107.667C1388.603,1107.667 1378.528,1102.996 1371.269,1093.653C1364.01,1084.311 1360.38,1072.023 1360.38,1056.788L1360.38,1054.737C1360.38,1037.745 1364.01,1024.041 1371.269,1013.624C1378.528,1003.207 1388.668,997.999 1401.689,997.999C1407.939,997.999 1413.456,999.155 1418.241,1001.466C1423.027,1003.777 1427.112,1007.114 1430.497,1011.476L1430.497,968.409L1414.579,965.675L1414.579,953.273L1449.735,953.273L1449.735,1090.577L1465.653,1093.312L1465.653,1105.616L1433.036,1105.616L1431.474,1093.019ZM1379.618,1056.788C1379.618,1067.4 1381.799,1075.929 1386.161,1082.374C1390.523,1088.819 1397.262,1092.042 1406.376,1092.042C1412.105,1092.042 1416.923,1090.74 1420.829,1088.136C1424.735,1085.532 1427.958,1081.853 1430.497,1077.101L1430.497,1028.077C1428.023,1023.65 1424.801,1020.135 1420.829,1017.53C1416.858,1014.926 1412.105,1013.624 1406.571,1013.624C1397.392,1013.624 1390.605,1017.433 1386.21,1025.05C1381.816,1032.667 1379.618,1042.563 1379.618,1054.737L1379.618,1056.788Z" style="fill:white;fill-rule:nonzero;"/>
            <path d="M1472.302,1093.312L1488.22,1090.577L1488.22,1015.089L1472.302,1012.355L1472.302,999.952L1507.458,999.952L1507.458,1090.577L1523.376,1093.312L1523.376,1105.616L1472.302,1105.616L1472.302,1093.312ZM1507.458,972.901L1488.22,972.901L1488.22,953.273L1507.458,953.273L1507.458,972.901Z" style="fill:white;fill-rule:nonzero;"/>
            <path d="M1530.122,1051.808C1530.122,1036.183 1534.354,1023.308 1542.818,1013.185C1551.281,1003.061 1562.772,997.999 1577.29,997.999C1591.874,997.999 1603.413,1003.045 1611.909,1013.136C1620.405,1023.227 1624.653,1036.118 1624.653,1051.808L1624.653,1053.956C1624.653,1069.711 1620.422,1082.602 1611.958,1092.628C1603.495,1102.654 1592.004,1107.667 1577.485,1107.667C1562.837,1107.667 1551.281,1102.638 1542.818,1092.579C1534.354,1082.521 1530.122,1069.646 1530.122,1053.956L1530.122,1051.808ZM1549.36,1053.956C1549.36,1065.154 1551.721,1074.399 1556.441,1081.691C1561.161,1088.982 1568.176,1092.628 1577.485,1092.628C1586.6,1092.628 1593.534,1088.982 1598.286,1081.691C1603.039,1074.399 1605.415,1065.154 1605.415,1053.956L1605.415,1051.808C1605.415,1040.74 1603.039,1031.528 1598.286,1024.171C1593.534,1016.814 1586.535,1013.136 1577.29,1013.136C1568.045,1013.136 1561.079,1016.814 1556.392,1024.171C1551.704,1031.528 1549.36,1040.74 1549.36,1051.808L1549.36,1053.956Z" style="fill:white;fill-rule:nonzero;"/>
        </g>
    </g>
</svg>
